<svg xmlns="http://www.w3.org/2000/svg" viewBox="0 0 28.61 27.89"><defs><style>.cls-1{fill:#504152;}</style></defs><title>bebe</title><g id="Capa_2" data-name="Capa 2"><g id="Capa_1-2" data-name="Capa 1"><path class="cls-1" d="M26.59,13.4a2.76,2.76,0,0,1,2,2.61,3.72,3.72,0,0,1-3.2,3.87.52.52,0,0,0-.53.43A10.27,10.27,0,0,1,18.57,27a12,12,0,0,1-9,.07,9.44,9.44,0,0,1-5.93-6.22c-.08-.28-.15-.57-.23-.88a3.3,3.3,0,0,1-2.37-1,3.6,3.6,0,0,1-1-2A3.09,3.09,0,0,1,2,13.4c0-.83-.1-1.64-.06-2.44A10.37,10.37,0,0,1,5.41,3.58,13.07,13.07,0,0,1,17.67.39a8.14,8.14,0,0,1,1.26.43.57.57,0,0,1,.38.76c-.11.3-.42.41-.8.25A12.05,12.05,0,0,0,5.82,4.75a9.67,9.67,0,0,0-2.57,8.84c.12.64-.06.87-.7.88a1.26,1.26,0,0,0-1,.57A2.49,2.49,0,0,0,3,18.82a2.81,2.81,0,0,0,.71,0,.6.6,0,0,1,.72.51A8.85,8.85,0,0,0,12,26.58a11.25,11.25,0,0,0,7.23-1.12,9.11,9.11,0,0,0,4.73-6c.15-.56.33-.69.9-.62a2.58,2.58,0,0,0,2.59-2.2,2.14,2.14,0,0,0-.25-1.49,1.24,1.24,0,0,0-1.15-.66c-.61,0-.78-.23-.67-.85a11,11,0,0,0-.34-5.93,8.7,8.7,0,0,0-3.77-4.53L21,3a.51.51,0,0,1-.26-.72.54.54,0,0,1,.78-.24,17.49,17.49,0,0,1,2.14,1.56,10,10,0,0,1,3.06,8.08C26.72,12.26,26.64,12.83,26.59,13.4Z"/><path class="cls-1" d="M14.77,8.85a11.26,11.26,0,0,1-4.06,1.81,11.33,11.33,0,0,1-4.38.1c-.38-.06-.58-.3-.53-.62a.56.56,0,0,1,.7-.47,10.16,10.16,0,0,0,5.35-.52,8.6,8.6,0,0,0,3.42-2.24A.58.58,0,0,1,16,6.74a.54.54,0,0,1,.28.66c-.14.69-.29,1.38-.44,2.09l.28-.09a6.88,6.88,0,0,0,3.35-2.95c.14-.25.31-.44.61-.42s.45.25.54.53A9.13,9.13,0,0,0,23.76,11a.58.58,0,0,1,.18.85c-.2.26-.51.27-.85,0a10,10,0,0,1-3-3.74l-.16-.32c-.2.23-.39.46-.59.67A8.05,8.05,0,0,1,15,10.88a.66.66,0,0,1-.75-.19.68.68,0,0,1,.05-.77c.18-.34.34-.68.51-1Z"/><path class="cls-1" d="M14.15,23.1a3.55,3.55,0,0,1-3.06-1.75.54.54,0,0,1,.16-.78.51.51,0,0,1,.74.19,2.58,2.58,0,0,0,4.41,0c.28-.36.57-.44.86-.2s.27.53,0,.87A4.07,4.07,0,0,1,14.15,23.1Z"/><path class="cls-1" d="M9.78,17.09a1.16,1.16,0,1,1,1.06-1.15A1.11,1.11,0,0,1,9.78,17.09Z"/><path class="cls-1" d="M19.81,15.94a1.11,1.11,0,0,1-1.06,1.15,1.09,1.09,0,0,1-1.09-1.15,1.08,1.08,0,1,1,2.15,0Z"/></g></g></svg>