<svg xmlns="http://www.w3.org/2000/svg" viewBox="0 0 30.43 30.43"><defs><style>.cls-1{fill:#504152;}</style></defs><title>hora</title><g id="Capa_2" data-name="Capa 2"><g id="Capa_1-2" data-name="Capa 1"><path class="cls-1" d="M0,15.24a15,15,0,0,0,1.79,7.12c.19.36.4.71.61,1.06l.26.44L3.58,25A18.21,18.21,0,0,0,5.4,26.84a14.93,14.93,0,0,0,11.2,3.52,14.8,14.8,0,0,0,10.87-6.15,14.71,14.71,0,0,0,2.91-10.13A15,15,0,0,0,25.7,4.17l-.14-.12a2.57,2.57,0,0,1-.33-.33c-.57-.46-1.19-.92-1.9-1.42l-.26-.12A15.26,15.26,0,0,0,5.37,3.61a.84.84,0,0,1-.25.17,4.3,4.3,0,0,1-.64.64l-.27.25-.06.08C4.08,4.83,4,4.91,4,5A15.23,15.23,0,0,0,.16,13L0,13.76V14c0,.25,0,.5,0,.74a1.15,1.15,0,0,1-.06.37Zm4.65-9.4A13.57,13.57,0,0,1,6.57,4.05L7,3.76a2.08,2.08,0,0,1,.38-.28l.16-.11.82-.5a14.18,14.18,0,0,1,13.56-.1l.17.11a8,8,0,0,1,1.12.7,1.41,1.41,0,0,1,.45.3l.08.07.25.19a2.49,2.49,0,0,1,.48.4l.16.14a3.94,3.94,0,0,1,.51.49,10.65,10.65,0,0,1,1.65,1.91A13.83,13.83,0,0,1,29.28,14a13.91,13.91,0,0,1-3.4,10.48l-.25.26a3.08,3.08,0,0,1-.4.41,3.33,3.33,0,0,1-.58.55l-.07.06a2.2,2.2,0,0,1-.54.47,4.89,4.89,0,0,1-.73.54,7.46,7.46,0,0,1-1.47.93,13.78,13.78,0,0,1-5.92,1.63l-.69,0A13.94,13.94,0,0,1,6,25.9a.77.77,0,0,1-.18-.18,6.51,6.51,0,0,1-.71-.66l-.18-.18A14.3,14.3,0,0,1,2,20.19,13.6,13.6,0,0,1,1.09,15,14.05,14.05,0,0,1,4.65,5.84Z"/><path class="cls-1" d="M15.77,6.65a2,2,0,0,0,0-.43.48.48,0,0,0-.36-.4.54.54,0,0,0-.55.13.71.71,0,0,0-.17.56v7.92a.71.71,0,0,1-.35.67l-2.18,1.24-.17.08a1.45,1.45,0,0,1-.28.21l-2,1.16a.55.55,0,0,0-.25.79.56.56,0,0,0,.79.16l1.41-.82c1.21-.7,2.42-1.4,3.64-2.09a.81.81,0,0,0,.51-.86V6.65Z"/></g></g></svg>